#!OML:ASF I:\Actors\actors\Patient Classification 1\Patient 1\Session 1\Subject1.ASF
:FULLY-SPECIFIED
:DEGREES
766
root 0.862929 17.5459 8.75543 7.67826 -0.452436 -8.13313
lowerback -1.63203 0.623501 6.5934
upperback -10.6201 1.30891 2.27521
thorax -10.3392 0.178685 -1.32827
lowerneck -14.2212 -3.35151 -0.122154
upperneck 22.7403 -5.28758 2.3145
head 9.60448 -2.21957 0.163675
rclavicle -1.2101e-014 2.31584e-014
rhumerus -5.03141 27.6127 -80.1212
rradius 128.057
rwrist 7.37623
rhand -15.5639 315.122
rfingers 7.12502
rthumb 10.6208 -74.5893
lclavicle -1.2101e-014 2.31584e-014
lhumerus -12.4827 -29.186 86.1916
lradius 123.769
lwrist 1.72105
lhand -43.6169 -34.1424
lfingers 7.12502
lthumb -16.4524 355.18
rfemur -5.5018 23.0325 25.1985
rtibia 9.30492
rfoot -13.9153 -19.537
rtoes 0.282487
lfemur 2.70518 -34.0717 -10.3868
ltibia -1.55634
lfoot -12.0737 41.5744
ltoes -1.36848
767
root 0.865015 17.5401 8.75918 7.55758 -0.481601 -8.20032
lowerback -1.64146 0.578015 6.74531
upperback -10.5073 1.25201 2.35275
thorax -10.2109 0.146775 -1.32634
lowerneck -14.2481 -3.2688 -0.221136
upperneck 22.7907 -5.14051 2.28247
head 9.62678 -2.16204 0.18666
rclavicle 8.19987e-016 2.98177e-016
rhumerus -5.43333 28.2707 -80.1981
rradius 128.146
rwrist 7.76894
rhand -15.6195 314.585
rfingers 7.12502
rthumb 10.5672 -75.1296
lclavicle 8.19987e-016 2.98177e-016
lhumerus -13.7774 -29.1588 86.8608
lradius 123.941
lwrist 2.78081
lhand -43.7821 -34.4565
lfingers 7.12502
lthumb -16.6114 354.853
rfemur -5.31121 23.0011 25.3317
rtibia 9.25368
rfoot -13.9368 -19.4863
rtoes 0.140415
lfemur 2.78218 -33.7498 -10.3391
ltibia -1.48408
lfoot -12.0523 41.2764
ltoes -1.41053
768
root 0.867162 17.5306 8.76252 7.41433 -0.481731 -8.19716
lowerback -1.61357 0.559966 6.89174
upperback -10.4181 1.22671 2.3036
thorax -10.1267 0.122482 -1.45948
lowerneck -14.402 -3.25524 -0.0693537
upperneck 22.967 -5.12451 2.10939
head 9.70849 -2.15651 0.0995441
rclavicle -5.19325e-015 1.92324e-014
rhumerus -6.80522 29.4893 -81.6951
rradius 128.069
rwrist 8.08292
rhand -15.7892 314.349
rfingers 7.12502
rthumb 10.4035 -75.3739
lclavicle -5.19325e-015 1.92324e-014
lhumerus -15.6764 -29.8355 88.571
lradius 123.846
lwrist 2.83231
lhand -43.4426 -34.4243
lfingers 7.12502
lthumb -16.2845 354.912
rfemur -5.13893 22.9441 25.3968
rtibia 9.28026
rfoot -13.958 -19.4659
rtoes -0.273924
lfemur 2.88186 -33.429 -10.3809
ltibia -1.4171
lfoot -11.8982 40.9436
ltoes -1.82447
769
root 0.86954 17.518 8.76559 7.25443 -0.532033 -8.15639
lowerback -1.57063 0.58881 7.00395
upperback -10.3294 1.25852 2.17682
thorax -10.0457 0.125136 -1.66083
lowerneck -14.506 -3.32004 -0.0100746
upperneck 23.1186 -5.27547 2.25298
head 9.78716 -2.20115 0.117058
rclavicle -2.36057e-015 -2.77305e-014
rhumerus -8.60034 31.2246 -84.1786
rradius 127.688
rwrist 8.83609
rhand -15.8677 314.53
rfingers 7.12502
rthumb 10.3278 -75.1969
lclavicle -2.36057e-015 -2.77305e-014
lhumerus -18.0783 -31.2495 91.3382
lradius 123.477
lwrist 2.72794
lhand -43.2605 -34.2781
lfingers 7.12502
lthumb -16.1092 355.072
rfemur -5.02181 22.8118 25.4089
rtibia 9.41303
rfoot -13.9785 -19.3337
rtoes -0.834798
lfemur 3.04716 -33.1431 -10.5141
ltibia -1.35617
lfoot -11.7814 40.6811
ltoes -2.32288
770
root 0.871006 17.5051 8.76877 7.12555 -0.684695 -8.0313
lowerback -1.55819 0.573677 6.938
upperback -10.2385 1.22629 2.12719
thorax -9.94996 0.116457 -1.67637
lowerneck -14.5789 -3.3204 -0.271015
upperneck 23.3223 -5.34885 2.75309
head 9.89868 -2.19567 0.321824
rclavicle 8.44835e-016 -4.47266e-015
rhumerus -10.5579 33.5847 -87.3008
rradius 126.996
rwrist 9.47526
rhand -15.9569 314.927
rfingers 7.12502
rthumb 10.2417 -74.804
lclavicle 8.44835e-016 -4.47266e-015
lhumerus -20.7669 -32.841 94.9026
lradius 122.713
lwrist 2.59785
lhand -43.3705 -34.5734
lfingers 7.12502
lthumb -16.2151 354.768
rfemur -5.02838 22.6371 25.2827
rtibia 9.66748
rfoot -14.0308 -19.0901
rtoes -1.24864
lfemur 3.17042 -32.8172 -10.7433
ltibia -1.23761
lfoot -11.815 40.4632
ltoes -2.51643
771
root 0.870215 17.4955 8.77171 7.04489 -0.919644 -7.93436
lowerback -1.54958 0.568039 6.81592
upperback -10.1706 1.21045 2.14069
thorax -9.8783 0.122768 -1.59413
lowerneck -14.6006 -3.25806 -0.26344
upperneck 23.3561 -5.26659 2.76025
head 9.91344 -2.15523 0.333095
rclavicle -7.82715e-015 6.36111e-015
rhumerus -12.603 36.2412 -90.6871
rradius 126.074
rwrist 9.33742
rhand -16.1882 315.424
rfingers 7.12502
rthumb 10.0186 -74.3177
lclavicle -7.82715e-015 6.36111e-015
lhumerus -23.4286 -34.7117 98.8652
lradius 121.552
lwrist 2.65934
lhand -43.8301 -34.7251
lfingers 7.12502
lthumb -16.6577 354.58
rfemur -5.13173 22.5602 25.1724
rtibia 9.99874
rfoot -14.1142 -18.8613
rtoes -1.47512
lfemur 3.25133 -32.3563 -10.8891
ltibia -1.15313
lfoot -11.7115 40.2183
ltoes -2.78801
772
root 0.870425 17.4892 8.77578 6.97978 -1.1134 -7.8705
lowerback -1.5719 0.628893 6.76475
upperback -10.1039 1.27999 2.09327
thorax -9.78174 0.162534 -1.6216
lowerneck -14.8427 -3.24757 -0.0446581
upperneck 23.5611 -5.25766 2.51986
head 10.019 -2.15268 0.208477
rclavicle 3.13086e-015 1.5207e-014
rhumerus -14.5584 39.0522 -94.0731
rradius 124.962
rwrist 9.04782
rhand -16.5011 315.434
rfingers 7.12502
rthumb 9.71675 -74.3215
lclavicle 3.13086e-015 1.5207e-014
lhumerus -25.9614 -37.1939 102.906
lradius 120.161
lwrist 3.32413
lhand -44.5859 -35.3432
lfingers 7.12502
lthumb -17.3851 353.899
rfemur -5.20362 22.5371 25.1161
rtibia 10.2783
rfoot -14.146 -18.7314
rtoes -1.9712
lfemur 3.34623 -32.0316 -11.0231
ltibia -1.08107
lfoot -11.6153 40.0669
ltoes -3.03469
773
root 0.872135 17.4862 8.78032 6.91746 -1.20115 -7.7837
lowerback -1.68438 0.678929 6.74192
upperback -9.97884 1.32149 2.0044
thorax -9.56658 0.188659 -1.70635
lowerneck -15.2065 -3.2713 0.184567
upperneck 23.7232 -5.30568 2.30218
head 10.1341 -2.17211 0.0800993
rclavicle -9.19379e-015 1.6201e-014
rhumerus -16.1052 42.2485 -97.1717
rradius 123.622
rwrist 9.60026
rhand -16.7544 314.573
rfingers 7.12502
rthumb 9.47231 -75.1941
lclavicle -9.19379e-015 1.6201e-014
lhumerus -28.0115 -40.0331 106.444
lradius 118.582
lwrist 4.39572
lhand -44.5053 -36.6595
lfingers 7.12502
lthumb -17.3075 352.59
rfemur -5.20942 22.4949 25.0418
rtibia 10.4546
rfoot -14.1884 -18.6663
rtoes -2.48375
lfemur 3.40399 -31.9329 -11.2052
ltibia -0.93847
lfoot -11.7608 40.0074
ltoes -2.89552
774
root 0.871015 17.4856 8.7824 6.88041 -1.30213 -7.7651
lowerback -1.7512 0.685051 6.73364
upperback -9.88372 1.31634 1.99323
thorax -9.41902 0.192107 -1.71329
lowerneck -15.4616 -3.25347 0.283709
upperneck 23.8152 -5.28414 2.18826
head 10.2093 -2.16172 0.0210557
rclavicle 1.57288e-014 -1.13307e-014
rhumerus -16.875 45.0185 -99.3417
rradius 122.442
rwrist 8.01824
rhand -15.8722 314.889
rfingers 7.12502
rthumb 10.3234 -74.8379
lclavicle 1.57288e-014 -1.13307e-014
lhumerus -29.357 -42.9413 109.05
lradius 117
lwrist 5.57638
lhand -42.4631 -35.0018
lfingers 7.12502
lthumb -15.3413 354.409
rfemur -5.21217 22.525 25.0387
rtibia 10.5522
rfoot -14.2561 -18.5909
rtoes -2.5114
lfemur 3.4449 -31.8722 -11.2724
ltibia -0.834392
lfoot -11.9575 40.0119
ltoes -2.68839
775
root 0.868522 17.4847 8.78012 6.83869 -1.41116 -7.80781
lowerback -1.67344 0.699861 6.74873
upperback -9.85914 1.34464 2.02479
thorax -9.4359 0.206175 -1.69084
lowerneck -15.5375 -3.24031 0.2286
upperneck 23.8747 -5.26482 2.22761
head 10.248 -2.15097 0.0447387
rclavicle -3.47873e-015 1.799e-014
rhumerus -17.226 47.7777 -100.626
rradius 121.646
rwrist 5.95997
rhand -14.5468 314.428
rfingers 7.12502
rthumb 11.6018 -75.2312
lclavicle -3.47873e-015 1.799e-014
lhumerus -29.9314 -45.5825 110.461
lradius 115.943
lwrist 5.20765
lhand -42.3178 -37.9726
lfingers 7.12502
lthumb -15.2013 351.449
rfemur -5.19218 22.5755 25.1023
rtibia 10.5766
rfoot -14.2412 -18.5217
rtoes -2.35469
lfemur 3.57213 -31.9191 -11.2863
ltibia -0.869966
lfoot -12.0696 40.1379
ltoes -2.48938
776
root 0.869704 17.4833 8.7735 6.77965 -1.41065 -7.89135
lowerback -1.38913 0.743057 6.92624
upperback -9.9445 1.43979 1.99676
thorax -9.69384 0.227434 -1.82803
lowerneck -15.4791 -3.26802 0.173964
upperneck 23.998 -5.31423 2.30167
head 10.2862 -2.16824 0.0733838
rclavicle 1.04362e-015 1.5704e-014
rhumerus -16.6104 48.2659 -100.42
rradius 121.771
rwrist 6.26052
rhand -14.78 312.516
rfingers 7.12502
rthumb 11.3769 -77.1558
lclavicle 1.04362e-015 1.5704e-014
lhumerus -29.1524 -46.4179 109.88
lradius 116.354
lwrist 4.40707
lhand -43.5707 -40.5582
lfingers 7.12502
lthumb -16.4079 348.768
rfemur -5.11136 22.52 25.2093
rtibia 10.5001
rfoot -14.1554 -18.4642
rtoes -2.43892
lfemur 3.70297 -31.9795 -11.2417
ltibia -0.986536
lfoot -12.0031 40.1935
ltoes -2.49241
777
root 0.870992 17.4843 8.76433 6.83472 -1.35783 -7.97337
lowerback -1.30522 0.715414 6.92931
upperback -9.97619 1.42141 2.10666
thorax -9.78468 0.220609 -1.71197
lowerneck -15.4903 -3.19733 0.214946
upperneck 24.0402 -5.21011 2.23921
head 10.2991 -2.12287 0.058104
rclavicle 6.5102e-015 -6.4605e-015
rhumerus -14.8743 47.2701 -98.6737
rradius 122.475
rwrist 7.10574
rhand -15.9623 313.402
rfingers 7.12502
rthumb 10.2365 -76.3285
lclavicle 6.5102e-015 -6.4605e-015
lhumerus -26.9372 -45.4634 107.575
lradius 117.588
lwrist 5.45241
lhand -43.1081 -40.3903
lfingers 7.12502
lthumb -15.9624 348.972
rfemur -5.16822 22.5038 25.2634
rtibia 10.4268
rfoot -14.1378 -18.4466
rtoes -2.41405
lfemur 3.61866 -31.995 -11.0684
ltibia -1.0765
lfoot -11.9061 40.1738
ltoes -2.55505
778
root 0.868536 17.4898 8.75645 7.04431 -1.30543 -7.99549
lowerback -1.51053 0.644017 6.64568
upperback -9.96654 1.3096 2.31364
thorax -9.66494 0.204165 -1.32448
lowerneck -15.5301 -3.07982 0.135392
upperneck 23.9334 -5.02538 2.27122
head 10.2688 -2.0423 0.107562
rclavicle -1.05604e-014 1.87355e-014
rhumerus -12.2301 45.2905 -95.7063
rradius 123.581
rwrist 7.13335
rhand -17.6857 312.621
rfingers 7.12502
rthumb 8.57362 -77.1847
lclavicle -1.05604e-014 1.87355e-014
lhumerus -23.8035 -43.3705 104.178
lradius 118.976
lwrist 4.43211
lhand -42.9795 -39.0862
lfingers 7.12502
lthumb -15.8386 350.286
rfemur -5.43304 22.6227 25.1879
rtibia 10.412
rfoot -14.1879 -18.5299
rtoes -1.92044
lfemur 3.33176 -32.1674 -10.8661
ltibia -1.11902
lfoot -11.9377 40.3197
ltoes -2.36015
779
root 0.866938 17.4993 8.75311 7.31484 -1.2286 -8.03585
lowerback -1.29936 0.745501 6.82999
upperback -10.3735 1.48641 2.14617
thorax -10.2384 0.242965 -1.6161
lowerneck -15.0925 -3.18587 -0.00446582
upperneck 24.0396 -5.24385 2.66323
head 10.2431 -2.11288 0.246519
rclavicle 7.20594e-016 4.27387e-015
rhumerus -10.7357 41.5711 -93.4524
rradius 124.833
rwrist 5.55783
rhand -16.4113 313.636
rfingers 7.12502
rthumb 9.80339 -76.1157
lclavicle 7.20594e-016 4.27387e-015
lhumerus -21.5205 -41.4055 101.019
lradius 120.466
lwrist 4.23076
lhand -43.5643 -38.3111
lfingers 7.12502
lthumb -16.4017 351.015
rfemur -5.69971 22.7383 25.12
rtibia 10.3075
rfoot -14.1597 -18.6457
rtoes -1.34136
lfemur 2.99784 -32.4403 -10.6395
ltibia -1.16652
lfoot -11.9357 40.5732
ltoes -2.18778
780
root 0.867668 17.5122 8.75277 7.613 -1.13682 -8.06941
lowerback -1.49621 0.764966 6.83199
upperback -10.5577 1.5076 2.16996
thorax -10.3311 0.248894 -1.589
lowerneck -14.8553 -3.18915 -0.0978086
upperneck 24.0283 -5.24976 2.77161
head 10.1997 -2.1147 0.303646
rclavicle 6.88292e-015 -1.5704e-014
rhumerus -9.58625 37.516 -91.3701
rradius 125.887
rwrist 5.24365
rhand -14.8907 316.872
rfingers 7.12502
rthumb 11.2702 -72.8052
lclavicle 6.88292e-015 -1.5704e-014
lhumerus -18.675 -38.6068 97.5082
lradius 121.799
lwrist 4.44175
lhand -43.8641 -37.674
lfingers 7.12502
lthumb -16.6903 351.628
rfemur -5.92401 22.8618 25.0448
rtibia 10.098
rfoot -14.0517 -18.8237
rtoes -1.17341
lfemur 2.65918 -32.7733 -10.432
ltibia -1.2351
lfoot -11.9435 40.8708
ltoes -2.04036
